<svg xmlns="http://www.w3.org/2000/svg" data-name="Layer 1" viewBox="0 0 512 512"><circle cx="305.095" cy="184.078" r="88.876" fill="#ffe966"/><path fill="#ffe236" d="M305.09475,242.9541a58.87647,58.87647,0,1,1,58.876-58.877A58.94356,58.94356,0,0,1,305.09475,242.9541Z"/><path fill="#ffed80" d="M305.09475,212.9541a28.87647,28.87647,0,1,1,28.876-28.877A28.9095,28.9095,0,0,1,305.09475,212.9541Z"/><path fill="#ffcd85" d="M128.7793,246.15527a7.49972,7.49972,0,0,1-7.46387-6.85644L101.4082,8.14355a7.49983,7.49983,0,1,1,14.94434-1.2871l19.90723,231.15527a7.5,7.5,0,0,1-6.82862,8.11621C129.2124,246.14648,128.99463,246.15527,128.7793,246.15527Z"/><path fill="#ffc166" d="M286.354,375.75391a7.492,7.492,0,0,1-6.20459-3.27735L43.45508,25.17773a7.50008,7.50008,0,0,1,12.39551-8.44726L292.54492,364.0293a7.50176,7.50176,0,0,1-6.19092,11.72461Z"/><path fill="#f66" d="M440.42409,313.67383H365.00051l45-114.17383,37.93426,103.4189A8,8,0,0,1,440.42409,313.67383Z"/><path fill="#ff4e4e" d="M447.93475 302.919L410.00049 199.5l-15.53882 39.42505 23.47308 63.9939a8 8 0 0 1-7.51068 10.75488h30A8 8 0 0 0 447.93475 302.919zM71.57591 313.67383h75.42358l-45-114.17383L64.06523 302.9189A8 8 0 0 0 71.57591 313.67383z"/><polygon fill="#f66" points="365.001 504.5 147.001 504.5 102.001 199.5 259.375 229.5 410.001 199.5 365.001 504.5"/><polygon fill="#ff4e4e" points="229.375 229.5 244.047 226.578 102.001 199.5 102.869 205.384 229.375 229.5"/><polygon fill="#ff4e4e" points="379.092 205.656 335.001 504.5 365 504.5 410 199.5 379.092 205.656"/><path fill="#ff4e4e" d="M327.74864,309.1388H184.25238a15,15,0,0,1-11.756-5.68353L102.00051,214.5h308l-70.49588,88.95527A15,15,0,0,1,327.74864,309.1388Z"/><path fill="#eee" d="M327.74864,294.1388H184.25238a15,15,0,0,1-11.756-5.68353L102.00051,199.5h308l-70.49588,88.95527A15,15,0,0,1,327.74864,294.1388Z"/><path fill="#dedede" d="M368.11322,199.5l-58.60858,73.95532a15.00028,15.00028,0,0,1-11.756,5.68335H165.11322l7.38318,9.31665a15.00027,15.00027,0,0,0,11.756,5.68335H327.74866a15.00028,15.00028,0,0,0,11.756-5.68335L410.00049,199.5Z"/><path fill="#fff" d="M297.74854,254.31934h-68.4961a7.5,7.5,0,1,1,0-15h68.4961a7.5,7.5,0,1,1,0,15Z"/><rect width="153" height="71" x="179.501" y="363.095" fill="#fff" rx="10"/><path fill="#eee" d="M322.50055,363.095h-30a10.00011,10.00011,0,0,1,10,10v51a10,10,0,0,1-10,10h30a10,10,0,0,0,10-10v-51A10.00011,10.00011,0,0,0,322.50055,363.095Z"/></svg>