<?xml version="1.0" encoding="iso-8859-1"?>
<!-- Generator: Adobe Illustrator 19.0.0, SVG Export Plug-In . SVG Version: 6.00 Build 0)  -->
<svg version="1.1" id="Capa_1" xmlns="http://www.w3.org/2000/svg" xmlns:xlink="http://www.w3.org/1999/xlink" x="0px" y="0px"
	 viewBox="0 0 480 480" style="enable-background:new 0 0 480 480;" xml:space="preserve">
<path style="fill:#A83B32;" d="M24,224h432v40H24V224z"/>
<path style="fill:#FBB540;" d="M456,176H24L240,72L456,176z"/>
<path style="fill:#A66444;" d="M240,128c-4.418,0-8-3.582-8-8V48c0-4.418,3.582-8,8-8s8,3.582,8,8v72
	C248,124.418,244.418,128,240,128z"/>
<g>
	<path style="fill:#F9E0A0;" d="M24,176h432v48H24V176z"/>
	<path style="fill:#F9E0A0;" d="M24,264h432v48H24V264z"/>
</g>
<path style="fill:#A66444;" d="M40,360h400c17.673,0,32,14.327,32,32l0,0c0,17.673-14.327,32-32,32H40c-17.673,0-32-14.327-32-32
	l0,0C8,374.327,22.327,360,40,360z"/>
<path style="fill:#FBB540;" d="M24,424h432v48H24V424z"/>
<path style="fill:#6B9777;" d="M24,312h432v48H24V312z"/>
<g>
	<path style="fill:#C7463B;" d="M20,224h120c11.046,0,20,8.954,20,20l0,0c0,11.046-8.954,20-20,20H20c-11.046,0-20-8.954-20-20l0,0
		C0,232.954,8.954,224,20,224z"/>
	<path style="fill:#C7463B;" d="M180,224h120c11.046,0,20,8.954,20,20l0,0c0,11.046-8.954,20-20,20H180c-11.046,0-20-8.954-20-20
		l0,0C160,232.954,168.954,224,180,224z"/>
	<path style="fill:#C7463B;" d="M340,224h120c11.046,0,20,8.954,20,20l0,0c0,11.046-8.954,20-20,20H340c-11.046,0-20-8.954-20-20
		l0,0C320,232.954,328.954,224,340,224z"/>
</g>
<g>
	<path style="fill:#FBB540;" d="M24,312l80,48l64-48H24z"/>
	<path style="fill:#FBB540;" d="M168,312l80,48l64-48H168z"/>
	<path style="fill:#FBB540;" d="M312,312l80,48l64-48H312z"/>
</g>
<g>
	<path style="fill:#744630;" d="M80,408c-1.016,0-2.023-0.193-2.968-0.568l-40-16c-4.105-1.639-6.103-6.295-4.464-10.4
		c1.639-4.105,6.295-6.103,10.4-4.464l40,16c4.105,1.635,6.106,6.288,4.471,10.393C86.226,406.006,83.278,408.003,80,408z"/>
	<path style="fill:#744630;" d="M152,408c-1.016,0-2.023-0.193-2.968-0.568l-40-16c-4.105-1.639-6.103-6.295-4.464-10.4
		c1.639-4.105,6.295-6.103,10.4-4.464l40,16c4.105,1.635,6.107,6.288,4.471,10.393C158.226,406.006,155.278,408.003,152,408z"/>
	<path style="fill:#744630;" d="M224,408c-1.016,0-2.023-0.193-2.968-0.568l-40-16c-4.105-1.639-6.103-6.295-4.464-10.4
		c1.639-4.105,6.295-6.103,10.4-4.464l40,16c4.105,1.635,6.107,6.288,4.471,10.393C230.226,406.006,227.278,408.003,224,408z"/>
	<path style="fill:#744630;" d="M296,408c-1.016,0-2.023-0.193-2.968-0.568l-40-16c-4.105-1.639-6.103-6.295-4.464-10.4
		c1.639-4.105,6.295-6.103,10.4-4.464l40,16c4.105,1.635,6.107,6.288,4.471,10.393C302.226,406.006,299.278,408.003,296,408L296,408
		z"/>
	<path style="fill:#744630;" d="M368,408c-1.016,0-2.023-0.193-2.968-0.568l-40-16c-4.105-1.639-6.103-6.295-4.464-10.4
		c1.639-4.105,6.295-6.103,10.4-4.464l40,16c4.105,1.635,6.107,6.288,4.471,10.393C374.226,406.006,371.278,408.003,368,408L368,408
		z"/>
	<path style="fill:#744630;" d="M440,408c-1.016,0-2.023-0.193-2.968-0.568l-40-16c-4.105-1.639-6.103-6.295-4.464-10.4
		c1.639-4.105,6.295-6.103,10.4-4.464l40,16c4.105,1.635,6.107,6.288,4.471,10.393C446.226,406.006,443.278,408.003,440,408L440,408
		z"/>
</g>
<g>
	<path style="fill:#DA922A;" d="M136,144h16v16h-16V144z"/>
	<path style="fill:#DA922A;" d="M184,120h16v16h-16V120z"/>
	<path style="fill:#DA922A;" d="M232,144h16v16h-16V144z"/>
	<path style="fill:#DA922A;" d="M280,120h16v16h-16V120z"/>
	<path style="fill:#DA922A;" d="M328,144h16v16h-16V144z"/>
</g>
<circle style="fill:#C7463B;" cx="240" cy="40" r="32"/>
<g>
</g>
<g>
</g>
<g>
</g>
<g>
</g>
<g>
</g>
<g>
</g>
<g>
</g>
<g>
</g>
<g>
</g>
<g>
</g>
<g>
</g>
<g>
</g>
<g>
</g>
<g>
</g>
<g>
</g>
</svg>
